<svg width="25" height="24" viewBox="0 0 25 24" fill="none" xmlns="http://www.w3.org/2000/svg">
<path d="M6.5 17.9745C6.6287 19.2829 6.91956 20.1636 7.57691 20.8209C8.75596 22 10.6536 22 14.4489 22C18.2442 22 20.1419 22 21.3209 20.8209C22.5 19.6419 22.5 17.7442 22.5 13.9489C22.5 10.1536 22.5 8.25596 21.3209 7.07691C20.6636 6.41956 19.7829 6.1287 18.4745 6" stroke="white" stroke-width="1.5"/>
<path d="M2.5 10C2.5 6.22876 2.5 4.34315 3.67157 3.17157C4.84315 2 6.72876 2 10.5 2C14.2712 2 16.1569 2 17.3284 3.17157C18.5 4.34315 18.5 6.22876 18.5 10C18.5 13.7712 18.5 15.6569 17.3284 16.8284C16.1569 18 14.2712 18 10.5 18C6.72876 18 4.84315 18 3.67157 16.8284C2.5 15.6569 2.5 13.7712 2.5 10Z" stroke="white" stroke-width="1.5"/>
<path d="M2.5 11.1185C3.11902 11.0398 3.74484 11.001 4.37171 11.0023C7.02365 10.9533 9.61064 11.6763 11.6711 13.0424C13.582 14.3094 14.9247 16.053 15.5 18" stroke="white" stroke-width="1.5" stroke-linejoin="round"/>
<path d="M13.5 7H13.509" stroke="white" stroke-width="2" stroke-linecap="round" stroke-linejoin="round"/>
</svg>
