<svg width="115" height="30" viewBox="0 0 115 30" fill="none" xmlns="http://www.w3.org/2000/svg">
<path d="M15.5407 30C6.97129 30 0 23.2714 0 15C0 6.72891 6.97129 0 15.5407 0C24.11 0 31.081 6.72891 31.081 15C31.081 23.2714 24.11 30 15.5407 30ZM15.5407 1.27449C7.69917 1.27449 1.32005 7.43148 1.32005 15C1.32005 22.5685 7.69917 28.7262 15.5407 28.7262C23.3821 28.7262 29.7606 22.5685 29.7606 15C29.7606 7.43148 23.3818 1.27449 15.5407 1.27449Z" fill="url(#paint0_linear_1003_12538)"/>
<path d="M8.60673 19.8032C5.88229 19.8032 3.66602 17.6636 3.66602 15.0346C3.66602 12.4045 5.88264 10.2656 8.60673 10.2656C9.74386 10.2656 11.3642 11.0181 13.4228 12.5023C13.7151 12.7127 13.7752 13.1121 13.5565 13.3945C13.3385 13.6766 12.9247 13.7349 12.6325 13.5235C10.2388 11.7984 9.08262 11.5404 8.60639 11.5404C6.61018 11.5404 4.98606 13.1084 4.98606 15.0352C4.98606 16.9617 6.61018 18.529 8.60639 18.529C10.1389 18.529 13.4034 16.1 15.1011 14.5695C15.368 14.3293 15.7859 14.343 16.0345 14.6007C16.2837 14.858 16.2695 15.2604 16.0025 15.5013C15.5149 15.9405 11.1583 19.8032 8.60673 19.8032Z" fill="url(#paint1_linear_1003_12538)"/>
<path d="M22.5401 19.8042C21.3992 19.8042 19.8445 19.0868 17.7872 17.6127C17.4942 17.4029 17.4331 17.0036 17.6501 16.7208C17.8681 16.4384 18.2811 16.3791 18.5741 16.5891C20.9292 18.2774 22.0701 18.5293 22.5401 18.5293C24.5363 18.5293 26.1604 16.9614 26.1604 15.0352C26.1604 13.1084 24.5363 11.5404 22.5401 11.5404C21.008 11.5404 17.7431 13.9695 16.0454 15.5003C15.7788 15.7408 15.3612 15.7267 15.112 15.4694C14.8635 15.2118 14.8777 14.8091 15.144 14.5689C15.6323 14.1286 19.9896 10.2656 22.5405 10.2656C25.2656 10.2656 27.4808 12.4048 27.4808 15.0346C27.4808 17.6643 25.2656 19.8042 22.5401 19.8042Z" fill="url(#paint2_linear_1003_12538)"/>
<path d="M40.4064 22.1829H37.2974V11.1868H40.3841V12.6873C41.1392 11.6798 42.2718 11.0368 43.693 11.0368V14.0377C41.4279 14.0377 40.4064 15.2594 40.4064 17.1672V22.1829ZM52.5314 22.1829L48.4231 13.416V22.1829H45.1143V7.5H49.2448L53.7084 17.21L58.172 7.5H62.3025V22.1829H58.9271V13.3732L54.7965 22.1829H52.5314ZM75.0494 19.8251C73.9391 21.4327 72.1847 22.4401 69.6531 22.4401C66.0111 22.4401 63.6572 19.9751 63.6572 16.717C63.6572 13.5446 66.1 10.9725 69.6753 10.9725C73.2728 10.9725 75.4491 13.3732 75.4491 16.567C75.4491 16.9957 75.4047 17.553 75.4047 17.6173H66.6996C67.0327 19.0106 68.1208 19.9108 69.7197 19.9108C71.0966 19.9108 72.0959 19.3321 72.7399 18.4532L75.0494 19.8251ZM69.6531 13.416C68.2096 13.416 67.2103 14.1663 66.8106 15.4095H72.3401C72.007 14.0805 70.8967 13.416 69.6531 13.416ZM79.5574 11.1868V12.28C80.1348 11.7012 81.1786 10.9939 82.7109 10.9939C83.9989 10.9939 85.1536 11.444 85.9753 12.4943C86.8636 11.5941 88.0628 10.9939 89.7061 10.9939C92.482 10.9939 94.1475 12.7516 94.1475 15.3666V22.1829H91.0829V15.8596C91.0829 14.595 90.3723 13.7376 89.1731 13.7376C87.7963 13.7376 86.8636 14.6378 86.8636 16.1168V22.1829H83.8212V15.8596C83.8212 14.595 83.1106 13.7376 81.9114 13.7376C80.5346 13.7376 79.6019 14.6378 79.6019 16.1168V22.1829H76.5151V11.1868H79.5574ZM101.809 22.333C100.521 22.333 99.2773 21.9686 98.4779 21.3684V22.1829H95.3911V7.5H98.4779V12.0656C99.2773 11.4655 100.521 11.0796 101.809 11.0796C104.918 11.0796 107.561 13.5661 107.561 16.7385C107.561 19.9108 104.918 22.333 101.809 22.333ZM101.542 19.6965C103.23 19.6965 104.54 18.3889 104.54 16.7385C104.54 15.1094 103.23 13.7804 101.542 13.7804C99.8103 13.7804 98.4335 15.1094 98.4335 16.7385C98.4335 18.3889 99.7659 19.6965 101.542 19.6965ZM111.713 22.1829H108.604V11.1868H111.691V12.6873C112.446 11.6798 113.579 11.0368 115 11.0368V14.0377C112.735 14.0377 111.713 15.2594 111.713 17.1672V22.1829Z" fill="url(#paint3_linear_1003_12538)"/>
<defs>
<linearGradient id="paint0_linear_1003_12538" x1="0" y1="0" x2="31.081" y2="0" gradientUnits="userSpaceOnUse">
<stop stop-color="#FBB040"/>
<stop offset="1" stop-color="#F9ED32"/>
</linearGradient>
<linearGradient id="paint1_linear_1003_12538" x1="3.66602" y1="10.2656" x2="16.2124" y2="10.2656" gradientUnits="userSpaceOnUse">
<stop stop-color="#FBB040"/>
<stop offset="1" stop-color="#F9ED32"/>
</linearGradient>
<linearGradient id="paint2_linear_1003_12538" x1="14.9346" y1="10.2656" x2="27.4808" y2="10.2656" gradientUnits="userSpaceOnUse">
<stop stop-color="#FBB040"/>
<stop offset="1" stop-color="#F9ED32"/>
</linearGradient>
<linearGradient id="paint3_linear_1003_12538" x1="37.2974" y1="7.5" x2="115" y2="7.5" gradientUnits="userSpaceOnUse">
<stop stop-color="#FBB040"/>
<stop offset="1" stop-color="#F9ED32"/>
</linearGradient>
</defs>
</svg>
