<svg width="16" height="17" viewBox="0 0 16 17" fill="none" xmlns="http://www.w3.org/2000/svg">
<path opacity="0.4" d="M9.12093 1.33203C10.3461 1.33202 11.3165 1.33201 12.076 1.43412C12.8576 1.5392 13.4903 1.76062 13.9892 2.25952C14.4881 2.75844 14.7095 3.39107 14.8146 4.17268C14.9167 4.93215 14.9167 5.90256 14.9167 7.12772V9.86963C14.9167 11.0948 14.9167 12.0652 14.8146 12.8247C14.7095 13.6063 14.4881 14.239 13.9892 14.7379C13.4903 15.2368 12.8576 15.4582 12.076 15.5633C11.3165 15.6654 10.3461 15.6654 9.121 15.6654H8.04573C6.8206 15.6654 5.85012 15.6654 5.09065 15.5633C4.30904 15.4582 3.67641 15.2368 3.17749 14.7379C2.67859 14.239 2.45717 13.6063 2.35209 12.8247C2.24998 12.0652 2.24999 11.0948 2.25 9.86963V7.12775C2.24999 5.90258 2.24998 4.93216 2.35209 4.17268C2.45717 3.39107 2.67859 2.75844 3.17749 2.25952C3.67641 1.76062 4.30904 1.5392 5.09065 1.43412C5.85013 1.33201 6.82053 1.33202 8.04573 1.33203H9.12093Z" fill="#1F3892"/>
<path fill-rule="evenodd" clip-rule="evenodd" d="M8.75016 4.66797C7.73763 4.66797 6.91683 5.48878 6.91683 6.5013C6.91683 7.51384 7.73763 8.33464 8.75016 8.33464C9.7627 8.33464 10.5835 7.51384 10.5835 6.5013C10.5835 5.48878 9.7627 4.66797 8.75016 4.66797ZM10.6352 9.52717C9.48376 8.82604 8.0167 8.82604 6.8653 9.52717C6.6586 9.64597 6.18794 9.9173 5.94078 10.1648C5.78389 10.3218 5.61852 10.5448 5.58834 10.8271C5.55594 11.1302 5.68793 11.4086 5.92914 11.6437C6.29388 11.9991 6.78163 12.3346 7.44383 12.3346H10.0566C10.7188 12.3346 11.2066 11.9991 11.5713 11.6437C11.8125 11.4086 11.9445 11.1302 11.9121 10.8271C11.882 10.5447 11.7166 10.3218 11.5597 10.1648C11.3125 9.9173 10.8418 9.64597 10.6352 9.52717Z" fill="#1F3892"/>
<path fill-rule="evenodd" clip-rule="evenodd" d="M1.0835 4.4987C1.0835 4.13051 1.38198 3.83203 1.75016 3.83203H3.41683C3.78502 3.83203 4.0835 4.13051 4.0835 4.4987C4.0835 4.86689 3.78502 5.16536 3.41683 5.16536H1.75016C1.38198 5.16536 1.0835 4.86688 1.0835 4.4987ZM1.0835 8.4987C1.0835 8.1305 1.38198 7.83203 1.75016 7.83203H3.41683C3.78502 7.83203 4.0835 8.1305 4.0835 8.4987C4.0835 8.8669 3.78502 9.16536 3.41683 9.16536H1.75016C1.38198 9.16536 1.0835 8.8669 1.0835 8.4987ZM1.0835 12.4987C1.0835 12.1305 1.38198 11.832 1.75016 11.832H3.41683C3.78502 11.832 4.0835 12.1305 4.0835 12.4987C4.0835 12.8669 3.78502 13.1654 3.41683 13.1654H1.75016C1.38198 13.1654 1.0835 12.8669 1.0835 12.4987Z" fill="#1F3892"/>
</svg>
