<svg width="41" height="40" viewBox="0 0 41 40" fill="none" xmlns="http://www.w3.org/2000/svg">
<path d="M4.04659 26.2216C3.28622 21.2791 2.52584 16.3368 1.76547 11.3943C1.59684 10.2986 2.84347 9.55137 3.73022 10.2165C6.09922 11.9932 8.46809 13.7699 10.8371 15.5466C11.6171 16.1316 12.7283 15.9412 13.2691 15.13L19.1857 6.255C19.811 5.31713 21.189 5.31713 21.8142 6.255L27.7308 15.13C28.2716 15.9412 29.3828 16.1315 30.1628 15.5466C32.5318 13.7699 34.9007 11.9932 37.2697 10.2165C38.1565 9.55137 39.4031 10.2986 39.2346 11.3943C38.4742 16.3368 37.7138 21.2791 36.9535 26.2216H4.04659Z" fill="#FFB743"/>
<path d="M35.238 34.4483H5.7625C4.815 34.4483 4.04688 33.6801 4.04688 32.7326V28.9639H36.9538V32.7326C36.9536 33.6801 36.1855 34.4483 35.238 34.4483Z" fill="#FFB743"/>
</svg>
