<svg width="16" height="17" viewBox="0 0 16 17" fill="none" xmlns="http://www.w3.org/2000/svg">
<path opacity="0.4" d="M8.66675 3.16797H7.33341C4.81924 3.16797 3.56216 3.16797 2.78111 3.94902C2.15239 4.57774 2.02977 5.51492 2.00586 7.16797H13.9943C13.9703 5.51492 13.8477 4.57774 13.219 3.94902C12.4379 3.16797 11.1809 3.16797 8.66675 3.16797Z" fill="#2D4599"/>
<path d="M10.6668 1.83203V4.4987M5.3335 1.83203V4.4987" stroke="#2D4599" stroke-width="1.5" stroke-linecap="round" stroke-linejoin="round"/>
<path d="M8.66667 3.16797H7.33333C4.81917 3.16797 3.5621 3.16797 2.78105 3.94902C2 4.73007 2 5.98714 2 8.5013V9.83464C2 12.3488 2 13.6059 2.78105 14.3869C3.5621 15.168 4.81917 15.168 7.33333 15.168H8.66667C11.1808 15.168 12.4379 15.168 13.2189 14.3869C14 13.6059 14 12.3488 14 9.83464V8.5013C14 5.98714 14 4.73007 13.2189 3.94902C12.4379 3.16797 11.1808 3.16797 8.66667 3.16797Z" stroke="#2D4599" stroke-width="1.5" stroke-linecap="round" stroke-linejoin="round"/>
<path d="M2 7.16797H14" stroke="#2D4599" stroke-width="1.5" stroke-linecap="round" stroke-linejoin="round"/>
<path d="M6.66667 12.8335L6.66666 9.7316C6.66666 9.6038 6.5755 9.50013 6.46305 9.50013H6M9.33333 12.8322L10.3237 9.76153C10.3301 9.74173 10.3333 9.721 10.3333 9.70013C10.3333 9.58973 10.2438 9.50013 10.1333 9.50013L8.66667 9.5" stroke="#2D4599" stroke-width="1.5" stroke-linecap="round" stroke-linejoin="round"/>
</svg>
