<svg width="16" height="16" viewBox="0 0 16 16" fill="none" xmlns="http://www.w3.org/2000/svg">
<path d="M2 4.66797H4" stroke="#162868" stroke-width="1.5" stroke-linecap="round" stroke-linejoin="round"/>
<path d="M2 11.332H6" stroke="#162868" stroke-width="1.5" stroke-linecap="round" stroke-linejoin="round"/>
<path d="M12 11.332H14" stroke="#162868" stroke-width="1.5" stroke-linecap="round" stroke-linejoin="round"/>
<path d="M10 4.66797H14" stroke="#162868" stroke-width="1.5" stroke-linecap="round" stroke-linejoin="round"/>
<path d="M4 4.66797C4 4.04672 4 3.73609 4.10149 3.49106C4.23682 3.16436 4.49639 2.90479 4.82309 2.76946C5.06812 2.66797 5.37875 2.66797 6 2.66797C6.62125 2.66797 6.93187 2.66797 7.17693 2.76946C7.5036 2.90479 7.7632 3.16436 7.89853 3.49106C8 3.73609 8 4.04672 8 4.66797C8 5.28922 8 5.59985 7.89853 5.84488C7.7632 6.17158 7.5036 6.43115 7.17693 6.56648C6.93187 6.66797 6.62125 6.66797 6 6.66797C5.37875 6.66797 5.06812 6.66797 4.82309 6.56648C4.49639 6.43115 4.23682 6.17158 4.10149 5.84488C4 5.59985 4 5.28922 4 4.66797Z" stroke="#162868" stroke-width="1.5"/>
<path d="M8 11.332C8 10.7108 8 10.4002 8.10147 10.1551C8.2368 9.82843 8.4964 9.56883 8.82307 9.4335C9.06813 9.33203 9.37873 9.33203 10 9.33203C10.6213 9.33203 10.9319 9.33203 11.1769 9.4335C11.5036 9.56883 11.7632 9.82843 11.8985 10.1551C12 10.4002 12 10.7108 12 11.332C12 11.9533 12 12.2639 11.8985 12.509C11.7632 12.8356 11.5036 13.0952 11.1769 13.2306C10.9319 13.332 10.6213 13.332 10 13.332C9.37873 13.332 9.06813 13.332 8.82307 13.2306C8.4964 13.0952 8.2368 12.8356 8.10147 12.509C8 12.2639 8 11.9533 8 11.332Z" stroke="#162868" stroke-width="1.5"/>
</svg>
