<svg width="25" height="25" viewBox="0 0 25 25" fill="none" xmlns="http://www.w3.org/2000/svg">
<path d="M15.8335 17.5C15.034 18.1224 13.9837 18.5 12.8335 18.5C11.6832 18.5 10.633 18.1224 9.8335 17.5" stroke="white" stroke-width="1.5" stroke-linecap="round"/>
<path d="M3.18489 13.7135C2.83187 11.4162 2.65536 10.2676 3.08967 9.24938C3.52397 8.23112 4.48753 7.53443 6.41464 6.14106L7.85449 5.1C10.2518 3.36667 11.4504 2.5 12.8335 2.5C14.2165 2.5 15.4152 3.36667 17.8125 5.1L19.2523 6.14106C21.1795 7.53443 22.143 8.23112 22.5773 9.24938C23.0116 10.2676 22.8351 11.4162 22.4821 13.7135L22.1811 15.6724C21.6806 18.9289 21.4304 20.5572 20.2625 21.5286C19.0946 22.5 17.3871 22.5 13.9723 22.5H11.6947C8.27984 22.5 6.57241 22.5 5.4045 21.5286C4.23659 20.5572 3.98637 18.9289 3.48593 15.6724L3.18489 13.7135Z" stroke="white" stroke-width="1.5" stroke-linejoin="round"/>
</svg>
