<svg width="16" height="16" viewBox="0 0 16 16" fill="none" xmlns="http://www.w3.org/2000/svg">
<path d="M2 10.6663L4.97978 7.68654C5.20615 7.46021 5.51319 7.33301 5.83333 7.33301C6.15348 7.33301 6.46051 7.46021 6.68687 7.68654L9.33333 10.333M9.33333 10.333L10.3333 11.333M9.33333 10.333L10.6465 9.01987C10.8728 8.79354 11.1799 8.66634 11.5 8.66634C11.8201 8.66634 12.1272 8.79354 12.3535 9.01987L14 10.6663" stroke="#1F3892" stroke-width="1.5" stroke-linecap="round" stroke-linejoin="round"/>
<path d="M10.3333 5.33366C10.5174 5.33366 10.6667 5.18442 10.6667 5.00033C10.6667 4.81623 10.5174 4.66699 10.3333 4.66699M10.3333 5.33366C10.1493 5.33366 10 5.18442 10 5.00033C10 4.81623 10.1493 4.66699 10.3333 4.66699M10.3333 5.33366V4.66699" stroke="#1F3892" stroke-width="1.5" stroke-linecap="round" stroke-linejoin="round"/>
<path d="M2.46527 13.1651C1.66663 12.2301 1.66663 10.8201 1.66663 8.00033C1.66663 5.18051 1.66663 3.77059 2.46527 2.8355C2.57868 2.70271 2.70235 2.57905 2.83513 2.46564C3.77023 1.66699 5.18014 1.66699 7.99996 1.66699C10.8198 1.66699 12.2297 1.66699 13.1648 2.46564C13.2976 2.57905 13.4212 2.70271 13.5346 2.8355C14.3333 3.77059 14.3333 5.18051 14.3333 8.00033C14.3333 10.8201 14.3333 12.2301 13.5346 13.1651C13.4212 13.2979 13.2976 13.4216 13.1648 13.535C12.2297 14.3337 10.8198 14.3337 7.99996 14.3337C5.18014 14.3337 3.77023 14.3337 2.83513 13.535C2.70235 13.4216 2.57868 13.2979 2.46527 13.1651Z" stroke="#1F3892" stroke-width="1.5" stroke-linecap="round" stroke-linejoin="round"/>
</svg>
