<svg width="16" height="17" viewBox="0 0 16 17" fill="none" xmlns="http://www.w3.org/2000/svg">
<path opacity="0.4" d="M8.0289 2.66797C9.09737 2.66796 9.9389 2.66796 10.6085 2.73854C11.2931 2.8107 11.8554 2.96111 12.3407 3.30094C12.6751 3.53512 12.966 3.82601 13.2002 4.16045C13.54 4.64578 13.6904 5.20802 13.7626 5.89262C13.8332 6.56224 13.8332 7.40377 13.8332 8.47224V8.53037C13.8332 9.59884 13.8332 10.4404 13.7626 11.11C13.6904 11.7946 13.54 12.3568 13.2002 12.8422C12.966 13.1766 12.6751 13.4675 12.3407 13.7016C11.8554 14.0415 11.2931 14.1919 10.6085 14.264C9.9389 14.3346 9.09737 14.3346 8.0289 14.3346H7.97077C6.9023 14.3346 6.06077 14.3346 5.39115 14.264C4.70656 14.1919 4.14431 14.0415 3.65898 13.7016C3.32454 13.4675 3.03365 13.1766 2.79947 12.8422C2.45964 12.3568 2.30924 11.7946 2.23708 11.11C2.16649 10.4404 2.1665 9.59884 2.1665 8.53037V8.47224C2.1665 7.40377 2.16649 6.56224 2.23708 5.89262C2.30924 5.20802 2.45964 4.64578 2.79947 4.16045C3.03365 3.82601 3.32454 3.53512 3.65898 3.30094C4.14431 2.96111 4.70656 2.8107 5.39115 2.73854C6.06077 2.66796 6.9023 2.66796 7.97077 2.66797H8.0289Z" fill="#1F3892"/>
<path d="M13.2014 4.15877C13.5413 4.64409 13.6917 5.20634 13.7638 5.89093C13.8344 6.56055 13.8344 7.4021 13.8344 8.4705V8.5287C13.8344 9.59717 13.8344 10.4387 13.7638 11.1083C13.6917 11.7929 13.5413 12.3552 13.2014 12.8404C12.9673 13.1749 12.6764 13.4658 12.3419 13.7C11.8566 14.0398 11.2944 14.1902 10.6098 14.2624C9.94016 14.333 9.09863 14.333 8.03016 14.333H7.97196C6.90356 14.333 6.06201 14.333 5.39239 14.2624C4.7078 14.1902 4.14555 14.0398 3.66023 13.7C3.493 13.5829 3.33667 13.4516 3.19287 13.3078L12.8093 3.69141C12.9531 3.83521 13.0844 3.99154 13.2014 4.15877Z" fill="#1F3892"/>
</svg>
