<svg width="24" height="24" viewBox="0 0 24 24" fill="none" xmlns="http://www.w3.org/2000/svg">
<path d="M12 12.0078V11.9988" stroke="#1F3892" stroke-width="2" stroke-linecap="round" stroke-linejoin="round"/>
<path d="M16 12.0156V12.0066" stroke="#1F3892" stroke-width="2" stroke-linecap="round" stroke-linejoin="round"/>
<path d="M8 12V11.991" stroke="#1F3892" stroke-width="2" stroke-linecap="round" stroke-linejoin="round"/>
<path d="M12 21.5156C7.52166 21.5156 5.28249 21.5156 3.89124 20.1244C2.5 18.7331 2.5 16.494 2.5 12.0156C2.5 7.5373 2.5 5.29811 3.89124 3.90691C5.28249 2.51561 7.52166 2.51561 12 2.51561C16.4783 2.51561 18.7175 2.51561 20.1088 3.90691C21.5 5.29811 21.5 7.5373 21.5 12.0156C21.5 16.494 21.5 18.7331 20.1088 20.1244C18.7175 21.5156 16.4783 21.5156 12 21.5156Z" stroke="#1F3892" stroke-width="1.5"/>
</svg>
