<svg width="17" height="17" viewBox="0 0 17 17" fill="none" xmlns="http://www.w3.org/2000/svg">
<path d="M7.28822 15.556H6.65208C4.35106 15.556 3.20055 15.556 2.48571 14.8299C1.77087 14.1037 1.77087 12.935 1.77087 10.5977V7.05598C1.77087 4.7186 1.77087 3.54992 2.48571 2.82379C3.20055 2.09766 4.35106 2.09766 6.65208 2.09766H8.74399C11.045 2.09766 12.3893 2.13674 13.1042 2.86288C13.8191 3.589 13.8125 4.7186 13.8125 7.05598V7.89636" stroke="#1F3892" stroke-width="1.5" stroke-linecap="round" stroke-linejoin="round"/>
<path d="M11.2946 1.41699V2.83366M7.75296 1.41699V2.83366M4.2113 1.41699V2.83366" stroke="#1F3892" stroke-width="1.5" stroke-linecap="round" stroke-linejoin="round"/>
<path d="M4.95837 10.6247H7.79171M4.95837 7.08301H10.625" stroke="#1F3892" stroke-width="1.5" stroke-linecap="round"/>
<path opacity="0.93" d="M14.7049 10.5392C14.0635 9.82071 13.6788 9.8635 13.2512 9.99178C12.952 10.0346 11.9259 11.2322 11.4983 11.6136C10.7964 12.3071 10.0912 13.0211 10.0447 13.1143C9.91179 13.3303 9.78819 13.7131 9.72834 14.1408C9.61713 14.7824 9.45676 15.5047 9.65991 15.5666C9.86299 15.6284 10.4294 15.5096 11.0708 15.4154C11.4983 15.3384 11.7976 15.2529 12.0114 15.1246C12.3106 14.9449 12.8665 14.3119 13.8241 13.3709C14.4248 12.7385 15.0041 12.3015 15.1752 11.8738C15.3462 11.2322 15.0897 10.89 14.7049 10.5392Z" stroke="#1F3892" stroke-width="1.5"/>
</svg>
