<svg width="24" height="24" viewBox="0 0 24 24" fill="none" xmlns="http://www.w3.org/2000/svg">
<path d="M4.60509 7.5751L3.6151 6.5851C2.79497 5.7649 2.79497 4.4352 3.6151 3.6151C4.43524 2.795 5.76493 2.795 6.58507 3.6151L7.57506 4.6051M4.60509 7.5751L11.2644 14.2344C11.772 14.7419 12.4078 15.102 13.1041 15.276L16 16L15.276 13.1041C15.102 12.4078 14.7419 11.772 14.2344 11.2644L7.57506 4.6051M4.60509 7.5751L7.57506 4.6051" stroke="#1F3892" stroke-width="1.5" stroke-linejoin="round"/>
<path d="M13.5 5.0001C16.7875 5.0001 18.4312 5.0001 19.5376 5.908C19.7401 6.0742 19.9258 6.2599 20.092 6.4625C21 7.5688 21 9.2126 21 12.5001V13C21 16.7712 21 18.6568 19.8284 19.8284C18.6569 21 16.7712 21 13 21H12.5C9.21252 21 7.56879 21 6.46244 20.0921C6.2599 19.9258 6.07417 19.7401 5.90794 19.5376C5 18.4312 5 16.7875 5 13.5" stroke="#1F3892" stroke-width="1.5" stroke-linecap="round" stroke-linejoin="round"/>
</svg>
