<svg width="16" height="17" viewBox="0 0 16 17" fill="none" xmlns="http://www.w3.org/2000/svg">
<path opacity="0.4" d="M6.74456 1.72208C7.15496 1.48294 7.55076 1.33203 8.00016 1.33203C8.44956 1.33203 8.84536 1.48294 9.25576 1.72208C9.6493 1.95144 10.0983 2.28803 10.6505 2.70206L12.4074 4.0192L2.69291 13.7337C2.55934 13.3766 2.42626 12.954 2.27166 12.463L1.37766 9.62383C1.16627 8.9525 0.995182 8.40923 0.905762 7.9539C0.812729 7.48017 0.797202 7.0535 0.932855 6.62269C1.06879 6.19098 1.32566 5.85313 1.67299 5.5242C2.00572 5.2091 2.45458 4.8726 3.00716 4.45834L5.34982 2.70205C5.90205 2.28803 6.351 1.95144 6.74456 1.72208Z" fill="#1F3892"/>
<path d="M12.9932 4.4587C13.5457 4.87295 13.9946 5.20944 14.3273 5.52454C14.6746 5.85346 14.9315 6.19132 15.0674 6.62302C15.2031 7.05383 15.1876 7.4805 15.0945 7.95423C15.0051 8.40956 14.834 8.95283 14.6226 9.62416L13.7286 12.4633C13.5173 13.1344 13.3462 13.6778 13.1591 14.1006C12.9646 14.5402 12.7328 14.898 12.3732 15.1677C12.0121 15.4384 11.6068 15.5568 11.1364 15.6125C10.6866 15.6657 10.1309 15.6657 9.44883 15.6657H6.55144C5.86937 15.6657 5.31364 15.6657 4.86382 15.6125C4.3935 15.5568 3.98815 15.4384 3.62712 15.1677C3.26741 14.898 3.03566 14.5402 2.84114 14.1006C2.79092 13.9871 2.74186 13.865 2.69287 13.734L12.4074 4.01953L12.9932 4.4587Z" fill="#1F3892"/>
</svg>
