<svg width="25" height="25" viewBox="0 0 25 25" fill="none" xmlns="http://www.w3.org/2000/svg">
<path d="M19.4999 11V10.5C19.4999 6.72876 19.4998 4.84311 18.3283 3.67154C17.1567 2.5 15.2711 2.5 11.4999 2.5C7.72883 2.5 5.8432 2.50006 4.67163 3.67159C3.50009 4.84315 3.50007 6.72872 3.50004 10.4999L3.5 15C3.49997 18.2874 3.49996 19.9312 4.40788 21.0375C4.57412 21.2401 4.75986 21.4258 4.96243 21.5921C6.06877 22.5 7.71249 22.5 10.9999 22.5" stroke="white" stroke-width="1.5" stroke-linecap="round" stroke-linejoin="round"/>
<path d="M7.5 7.5H15.5M7.5 11.5H11.5" stroke="white" stroke-width="1.5" stroke-linecap="round" stroke-linejoin="round"/>
<path d="M18.5 19L17 18.45V16M12.5 18C12.5 20.4853 14.5147 22.5 17 22.5C19.4853 22.5 21.5 20.4853 21.5 18C21.5 15.5147 19.4853 13.5 17 13.5C14.5147 13.5 12.5 15.5147 12.5 18Z" stroke="white" stroke-width="1.5" stroke-linecap="round" stroke-linejoin="round"/>
</svg>
