<svg width="18" height="18" viewBox="0 0 18 18" fill="none" xmlns="http://www.w3.org/2000/svg">
<path d="M9 0C7.21997 0 5.47991 0.527841 3.99987 1.51677C2.51983 2.50571 1.36628 3.91131 0.685088 5.55585C0.00389963 7.20038 -0.17433 9.00998 0.172936 10.7558C0.520203 12.5016 1.37737 14.1053 2.63604 15.364C3.89471 16.6226 5.49836 17.4798 7.24419 17.8271C8.99002 18.1743 10.7996 17.9961 12.4442 17.3149C14.0887 16.6337 15.4943 15.4802 16.4832 14.0001C17.4722 12.5201 18 10.78 18 9C17.9973 6.61388 17.0482 4.32626 15.361 2.63902C13.6737 0.951778 11.3861 0.00269968 9 0ZM6.4158 5.9358L8.5758 3.7758C8.63154 3.71992 8.69775 3.67559 8.77064 3.64534C8.84354 3.6151 8.92168 3.59953 9.0006 3.59953C9.07952 3.59953 9.15767 3.6151 9.23056 3.64534C9.30346 3.67559 9.36967 3.71992 9.4254 3.7758L11.5854 5.9358C11.6427 5.99115 11.6884 6.05735 11.7199 6.13056C11.7513 6.20376 11.7679 6.28249 11.7686 6.36216C11.7692 6.44183 11.7541 6.52083 11.7239 6.59457C11.6937 6.66831 11.6492 6.7353 11.5928 6.79164C11.5365 6.84797 11.4695 6.89252 11.3958 6.92269C11.322 6.95286 11.243 6.96804 11.1634 6.96735C11.0837 6.96666 11.005 6.95011 10.9318 6.91866C10.8586 6.88721 10.7924 6.84151 10.737 6.7842L9.6 5.6484V10.92C9.6 11.0791 9.53679 11.2317 9.42427 11.3443C9.31174 11.4568 9.15913 11.52 9 11.52C8.84087 11.52 8.68826 11.4568 8.57574 11.3443C8.46322 11.2317 8.4 11.0791 8.4 10.92V5.6484L7.2642 6.7842C7.20885 6.84151 7.14265 6.88721 7.06945 6.91866C6.99624 6.95011 6.91751 6.96666 6.83784 6.96735C6.75818 6.96804 6.67917 6.95286 6.60543 6.92269C6.53169 6.89252 6.4647 6.84797 6.40837 6.79164C6.35203 6.7353 6.30748 6.66831 6.27731 6.59457C6.24714 6.52083 6.23196 6.44183 6.23265 6.36216C6.23334 6.28249 6.2499 6.20376 6.28134 6.13056C6.31279 6.05735 6.3585 5.99115 6.4158 5.9358ZM13.38 12.6C13.38 12.7591 13.3168 12.9117 13.2043 13.0243C13.0917 13.1368 12.9391 13.2 12.78 13.2H5.22C5.06087 13.2 4.90826 13.1368 4.79574 13.0243C4.68322 12.9117 4.62 12.7591 4.62 12.6V10.92C4.62 10.7609 4.68322 10.6083 4.79574 10.4957C4.90826 10.3832 5.06087 10.32 5.22 10.32C5.37913 10.32 5.53174 10.3832 5.64427 10.4957C5.75679 10.6083 5.82 10.7609 5.82 10.92V12H12.18V10.92C12.18 10.7609 12.2432 10.6083 12.3557 10.4957C12.4683 10.3832 12.6209 10.32 12.78 10.32C12.9391 10.32 13.0917 10.3832 13.2043 10.4957C13.3168 10.6083 13.38 10.7609 13.38 10.92V12.6Z" fill="#4A4F5E"/>
</svg>
