<svg width="16" height="16" viewBox="0 0 16 16" fill="none" xmlns="http://www.w3.org/2000/svg">
<path d="M7.33337 5.33301H8.66671" stroke="#1F3892" stroke-width="1.5" stroke-linecap="round"/>
<path d="M1.33337 7.33366C1.33337 5.13377 1.33337 4.03383 2.01679 3.35041C2.70021 2.66699 3.80015 2.66699 6.00004 2.66699H6.66671C8.86657 2.66699 9.96651 2.66699 10.65 3.35041C11.3334 4.03383 11.3334 5.13377 11.3334 7.33366V8.66699C11.3334 10.8669 11.3334 11.9668 10.65 12.6503C9.96651 13.3337 8.86657 13.3337 6.66671 13.3337H6.00004C3.80015 13.3337 2.70021 13.3337 2.01679 12.6503C1.33337 11.9668 1.33337 10.8669 1.33337 8.66699V7.33366Z" stroke="#1F3892" stroke-width="1.5"/>
<path d="M11.3334 5.93691L11.4173 5.86765C12.8278 4.70383 13.5331 4.12192 14.0999 4.40289C14.6667 4.68386 14.6667 5.61538 14.6667 7.47841V8.52094C14.6667 10.384 14.6667 11.3155 14.0999 11.5965C13.5331 11.8774 12.8278 11.2955 11.4173 10.1317L11.3334 10.0624" stroke="#1F3892" stroke-width="1.5" stroke-linecap="round"/>
</svg>
