<svg width="16" height="16" viewBox="0 0 16 16" fill="none" xmlns="http://www.w3.org/2000/svg">
<path d="M1.66663 8.00033C1.66663 5.01477 1.66663 3.52199 2.59412 2.59449C3.52162 1.66699 5.0144 1.66699 7.99996 1.66699C10.9855 1.66699 12.4783 1.66699 13.4058 2.59449C14.3333 3.52199 14.3333 5.01477 14.3333 8.00033C14.3333 10.9859 14.3333 12.4787 13.4058 13.4062C12.4783 14.3337 10.9855 14.3337 7.99996 14.3337C5.0144 14.3337 3.52162 14.3337 2.59412 13.4062C1.66663 12.4787 1.66663 10.9859 1.66663 8.00033Z" stroke="#1F3892" stroke-width="1.5"/>
<path d="M8 5.33301V10.6663" stroke="#1F3892" stroke-width="1.5" stroke-linecap="round" stroke-linejoin="round"/>
<path d="M6 6.66699V9.33366" stroke="#1F3892" stroke-width="1.5" stroke-linecap="round" stroke-linejoin="round"/>
<path d="M4 7.33301V8.66634" stroke="#1F3892" stroke-width="1.5" stroke-linecap="round" stroke-linejoin="round"/>
<path d="M10 6.66699V9.33366" stroke="#1F3892" stroke-width="1.5" stroke-linecap="round" stroke-linejoin="round"/>
<path d="M12 7.33301V8.66634" stroke="#1F3892" stroke-width="1.5" stroke-linecap="round" stroke-linejoin="round"/>
</svg>
